<svg xmlns="http://www.w3.org/2000/svg" viewBox="0 0 38.4 38.4"><defs><style>.cls-1{fill:#fff;}.cls-2{fill:#808285;}</style></defs><g id="Layer_2" data-name="Layer 2"><g id="Layer_1-2" data-name="Layer 1"><rect class="cls-1" width="38.4" height="38.4"/><path class="cls-2" d="M17.73,37.9a10.29,10.29,0,0,1-4.38-1.48,27,27,0,0,1-6.49-4.88A26.74,26.74,0,0,1,2,25.05c-2.24-4.26-1.53-5.45-.54-6.4a2,2,0,0,1,1.06-.53.88.88,0,0,1,.27,0H3l.22,0a1.56,1.56,0,0,0,1.15-.67c2.32-2.59,4.94-3.9,7.78-3.9a10.71,10.71,0,0,1,3.84.76,6.14,6.14,0,0,0,2.21.48c1.77,0,2.87-1.15,3-3.15a7.46,7.46,0,0,1,1.28-3.71,3.48,3.48,0,0,0,.62-1.42V6.37A3.73,3.73,0,0,1,24,3.86a2.48,2.48,0,0,1,1.56-.75,4,4,0,0,1,.45,0C26.69,3.08,27,3,28,2A5.06,5.06,0,0,1,31.59.5,6.22,6.22,0,0,1,36,2.44c2.39,2.4,2.6,5.73.48,7.93-1,1.05-1.12,1.34-1.13,2.05a3.87,3.87,0,0,1,0,.45,2.43,2.43,0,0,1-.76,1.56,3.69,3.69,0,0,1-2.5.91H31.9a3.48,3.48,0,0,0-1.42.62,7.46,7.46,0,0,1-3.71,1.28,3.3,3.3,0,0,0-2.71,1.37c-.6.93-.58,2.26,0,3.85,1.16,3,1.56,7.41-3.14,11.62-.62.55-.7.88-.65,1.37a1.22,1.22,0,0,1,0,.45A2,2,0,0,1,19.75,37,2.58,2.58,0,0,1,17.73,37.9Z"/><path class="cls-1" d="M31.59,1a5.74,5.74,0,0,1,4,1.8C37.8,5,38,8,36.08,10c-1,1.09-1.26,1.49-1.27,2.39a3.26,3.26,0,0,1,0,.41,1.94,1.94,0,0,1-.6,1.25,3.22,3.22,0,0,1-2.19.77h-.13a3.68,3.68,0,0,0-1.65.68,6.93,6.93,0,0,1-3.48,1.21,3.74,3.74,0,0,0-3.11,1.6c-.47.75-.86,2.1,0,4.3,1.61,4.11.6,7.84-3,11.07a1.87,1.87,0,0,0-.82,1.78.7.7,0,0,1,0,.29,1.44,1.44,0,0,1-.42.83,2,2,0,0,1-1.65.79A10.14,10.14,0,0,1,13.58,36a25.84,25.84,0,0,1-6.36-4.8,25.84,25.84,0,0,1-4.8-6.36C.18,20.54,1.11,19.66,1.79,19a1.44,1.44,0,0,1,.83-.42.5.5,0,0,1,.15,0h.14l.26,0a2,2,0,0,0,1.52-.84C6.92,15.3,9.41,14,12.1,14a10.15,10.15,0,0,1,3.66.73,6.64,6.64,0,0,0,2.39.51c2,0,3.35-1.35,3.51-3.62a6.93,6.93,0,0,1,1.21-3.48,3.68,3.68,0,0,0,.68-1.65V6.4a3.22,3.22,0,0,1,.77-2.19,1.94,1.94,0,0,1,1.25-.6,3.26,3.26,0,0,1,.41,0c.9,0,1.3-.23,2.39-1.27A4.59,4.59,0,0,1,31.59,1m0-1a5.54,5.54,0,0,0-3.9,1.6c-1.29,1.23-1.22.92-2.21,1a3,3,0,0,0-1.88.91,4.29,4.29,0,0,0-1,2.94c-.07,1-1.7,2.1-1.9,5.13-.12,1.72-1,2.69-2.51,2.69a5.69,5.69,0,0,1-2-.44,11,11,0,0,0-4-.8C9.42,13,6.6,14.15,4,17.11c-.38.42-.57.5-.78.5s-.24,0-.4,0a1.49,1.49,0,0,0-.39.05,2.39,2.39,0,0,0-1.28.66c-1.17,1.11-1.91,2.53.43,7a27.69,27.69,0,0,0,5,6.61,27.69,27.69,0,0,0,6.61,5,10.57,10.57,0,0,0,4.61,1.53,3,3,0,0,0,2.38-1.1A2.39,2.39,0,0,0,20.77,36c.19-.79-.31-.83.52-1.57,4.49-4,4.73-8.45,3.27-12.17-1.07-2.76-.14-4.38,2.25-4.54,3-.2,4.15-1.83,5.13-1.9a4.29,4.29,0,0,0,2.94-1,3,3,0,0,0,.91-1.88c.09-1-.22-.92,1-2.21,2.34-2.42,2.06-6.07-.49-8.62A6.71,6.71,0,0,0,31.59,0Z"/></g></g></svg>