<svg xmlns="http://www.w3.org/2000/svg" viewBox="0 0 38.5 38.5"><defs><style>.cls-1{fill:#fff;}.cls-2{fill:#808285;}</style></defs><g id="Layer_2" data-name="Layer 2"><g id="Layer_1-2" data-name="Layer 1"><rect class="cls-1" width="38.5" height="38.5"/><path class="cls-2" d="M17.78,38a10.36,10.36,0,0,1-4.4-1.48,26.7,26.7,0,0,1-6.5-4.9A26.7,26.7,0,0,1,2,25.12C-.26,20.85.45,19.65,1.45,18.7a1.9,1.9,0,0,1,1.05-.54l.28,0h.4a1.55,1.55,0,0,0,1.15-.66c2.33-2.6,4.95-3.92,7.8-3.92a10.52,10.52,0,0,1,3.85.77,6.18,6.18,0,0,0,2.22.48c1.78,0,2.87-1.15,3-3.16A7.5,7.5,0,0,1,22.5,7.94a3.31,3.31,0,0,0,.61-1.43V6.39A3.75,3.75,0,0,1,24,3.87a2.46,2.46,0,0,1,1.56-.75l.46,0c.71,0,1-.12,2.06-1.13A5,5,0,0,1,31.68.5a6.21,6.21,0,0,1,4.37,2c2.4,2.4,2.61,5.74.49,7.94-1,1.06-1.12,1.35-1.13,2.06,0,.12,0,.27,0,.45a2.46,2.46,0,0,1-.75,1.57,3.75,3.75,0,0,1-2.52.91H32a3.31,3.31,0,0,0-1.43.61,7.4,7.4,0,0,1-3.72,1.29,3.32,3.32,0,0,0-2.72,1.37,4.29,4.29,0,0,0,0,3.86c1.17,3,1.57,7.42-3.14,11.65-.62.55-.71.88-.66,1.37a1.23,1.23,0,0,1,0,.46,1.9,1.9,0,0,1-.54,1A2.56,2.56,0,0,1,17.78,38Z"/><path class="cls-1" d="M31.68,1a5.74,5.74,0,0,1,4,1.8c2.2,2.2,2.4,5.25.48,7.25-1,1.09-1.26,1.49-1.27,2.39,0,.11,0,.25,0,.42a2,2,0,0,1-.61,1.25,3.22,3.22,0,0,1-2.2.77H32a3.59,3.59,0,0,0-1.65.69,7,7,0,0,1-3.49,1.21,3.72,3.72,0,0,0-3.11,1.6c-.48.75-.87,2.11,0,4.31,1.62,4.12.6,7.86-3,11.1a1.89,1.89,0,0,0-.82,1.79.57.57,0,0,1,0,.29,1.45,1.45,0,0,1-.41.83,2.08,2.08,0,0,1-1.66.79,10.18,10.18,0,0,1-4.16-1.42,26.46,26.46,0,0,1-6.39-4.81,26.46,26.46,0,0,1-4.81-6.39c-2.25-4.28-1.31-5.17-.63-5.82a1.45,1.45,0,0,1,.83-.41l.16,0h.4a2,2,0,0,0,1.52-.83c2.23-2.49,4.73-3.75,7.43-3.75a10,10,0,0,1,3.67.74,6.69,6.69,0,0,0,2.4.51c2,0,3.35-1.36,3.51-3.63A7,7,0,0,1,22.92,8.2a3.59,3.59,0,0,0,.69-1.65V6.42a3.22,3.22,0,0,1,.77-2.2,2,2,0,0,1,1.25-.61l.42,0c.9,0,1.3-.22,2.39-1.27A4.61,4.61,0,0,1,31.68,1m0-1a5.57,5.57,0,0,0-3.92,1.6c-1.29,1.24-1.23.92-2.21,1a3,3,0,0,0-1.89.91,4.3,4.3,0,0,0-1,3c-.07,1-1.7,2.1-1.91,5.14-.12,1.73-1,2.7-2.51,2.7a5.64,5.64,0,0,1-2-.45,11.31,11.31,0,0,0-4-.8c-2.69,0-5.51,1.12-8.17,4.08-.38.43-.57.5-.78.5l-.4,0a1.61,1.61,0,0,0-.4.05,2.46,2.46,0,0,0-1.28.66c-1.17,1.11-1.91,2.54.44,7a27.06,27.06,0,0,0,5,6.62,27.32,27.32,0,0,0,6.62,5,10.69,10.69,0,0,0,4.63,1.54,3,3,0,0,0,2.38-1.1,2.46,2.46,0,0,0,.66-1.28c.2-.8-.3-.84.53-1.58,4.5-4,4.73-8.47,3.28-12.21-1.08-2.76-.14-4.38,2.25-4.54,3-.21,4.16-1.84,5.14-1.91a4.3,4.3,0,0,0,2.95-1A3,3,0,0,0,35.88,13c.1-1-.22-.92,1-2.21,2.34-2.43,2.06-6.09-.49-8.65A6.79,6.79,0,0,0,31.68,0Z"/></g></g></svg>