<svg xmlns="http://www.w3.org/2000/svg" xmlns:xlink="http://www.w3.org/1999/xlink" viewBox="0 0 158.83 158.78"><defs><style>.cls-1{fill:none;}.cls-2{fill:#36f;}.cls-3{clip-path:url(#clip-path);}.cls-4{clip-path:url(#clip-path-2);}.cls-5{font-size:10.4px;fill:#fff;font-family:RobotoMono-Regular, Roboto Mono;}.cls-6{clip-path:url(#clip-path-3);}.cls-7{clip-path:url(#clip-path-4);}.cls-8{clip-path:url(#clip-path-5);}</style><clipPath id="clip-path" transform="translate(67.37 69.77)"><rect class="cls-1" width="38.4" height="38.4"/></clipPath><clipPath id="clip-path-2" transform="translate(67.37 69.77)"><rect class="cls-1" x="12.02" y="-28.78" width="38.4" height="38.4"/></clipPath><clipPath id="clip-path-3" transform="translate(67.37 69.77)"><rect class="cls-1" x="12.02" y="9.62" width="38.4" height="38.4"/></clipPath><clipPath id="clip-path-4" transform="translate(67.37 69.77)"><rect class="cls-1" x="-26.38" y="-28.78" width="38.4" height="38.4"/></clipPath><clipPath id="clip-path-5" transform="translate(67.37 69.77)"><rect class="cls-1" x="-26.38" y="9.62" width="38.4" height="38.4"/></clipPath></defs><g id="Layer_2" data-name="Layer 2"><g id="Layer_1-2" data-name="Layer 1"><rect class="cls-2" x="67.37" y="69.77" width="38.4" height="38.4"/><g class="cls-3"><g class="cls-4"><text class="cls-5" transform="translate(121.49 118.39) rotate(-45)">facebook</text><text class="cls-5" transform="translate(121.51 98.6) rotate(-45)">facebook</text><text class="cls-5" transform="translate(83.09 118.39) rotate(-45)">facebook</text><text class="cls-5" transform="translate(83.11 98.6) rotate(-45)">facebook</text><text class="cls-5" transform="translate(44.69 118.39) rotate(-45)">facebook</text><text class="cls-5" transform="translate(44.71 98.6) rotate(-45)">facebook</text><text class="cls-5" transform="translate(121.49 79.99) rotate(-45)">facebook</text><text class="cls-5" transform="translate(121.51 60.2) rotate(-45)">facebook</text><text class="cls-5" transform="translate(121.54 98.62) rotate(-45)">facebook</text><text class="cls-5" transform="translate(83.09 79.99) rotate(-45)">facebook</text><text class="cls-5" transform="translate(83.11 60.2) rotate(-45)">facebook</text><text class="cls-5" transform="translate(83.14 98.62) rotate(-45)">facebook</text><text class="cls-5" transform="translate(44.69 79.99) rotate(-45)">facebook</text><text class="cls-5" transform="translate(44.71 60.2) rotate(-45)">facebook</text><text class="cls-5" transform="translate(44.74 98.62) rotate(-45)">facebook</text><text class="cls-5" transform="translate(121.49 41.59) rotate(-45)">facebook</text><text class="cls-5" transform="translate(121.54 60.22) rotate(-45)">facebook</text><text class="cls-5" transform="translate(83.09 41.59) rotate(-45)">facebook</text><text class="cls-5" transform="translate(83.14 60.22) rotate(-45)">facebook</text><text class="cls-5" transform="translate(44.69 41.59) rotate(-45)">facebook</text><text class="cls-5" transform="translate(44.74 60.22) rotate(-45)">facebook</text></g><g class="cls-6"><text class="cls-5" transform="translate(121.49 156.79) rotate(-45)">facebook</text><text class="cls-5" transform="translate(121.51 137) rotate(-45)">facebook</text><text class="cls-5" transform="translate(83.09 156.79) rotate(-45)">facebook</text><text class="cls-5" transform="translate(83.11 137) rotate(-45)">facebook</text><text class="cls-5" transform="translate(44.69 156.79) rotate(-45)">facebook</text><text class="cls-5" transform="translate(44.71 137) rotate(-45)">facebook</text><text class="cls-5" transform="translate(121.49 118.39) rotate(-45)">facebook</text><text class="cls-5" transform="translate(121.51 98.6) rotate(-45)">facebook</text><text class="cls-5" transform="translate(121.54 137.02) rotate(-45)">facebook</text><text class="cls-5" transform="translate(83.09 118.39) rotate(-45)">facebook</text><text class="cls-5" transform="translate(83.11 98.6) rotate(-45)">facebook</text><text class="cls-5" transform="translate(83.14 137.02) rotate(-45)">facebook</text><text class="cls-5" transform="translate(44.69 118.39) rotate(-45)">facebook</text><text class="cls-5" transform="translate(44.71 98.6) rotate(-45)">facebook</text><text class="cls-5" transform="translate(44.74 137.02) rotate(-45)">facebook</text><text class="cls-5" transform="translate(121.49 79.99) rotate(-45)">facebook</text><text class="cls-5" transform="translate(121.54 98.62) rotate(-45)">facebook</text><text class="cls-5" transform="translate(83.09 79.99) rotate(-45)">facebook</text><text class="cls-5" transform="translate(83.14 98.62) rotate(-45)">facebook</text><text class="cls-5" transform="translate(44.69 79.99) rotate(-45)">facebook</text><text class="cls-5" transform="translate(44.74 98.62) rotate(-45)">facebook</text></g><g class="cls-7"><text class="cls-5" transform="translate(83.09 118.39) rotate(-45)">facebook</text><text class="cls-5" transform="translate(83.11 98.6) rotate(-45)">facebook</text><text class="cls-5" transform="translate(44.69 118.39) rotate(-45)">facebook</text><text class="cls-5" transform="translate(44.71 98.6) rotate(-45)">facebook</text><text class="cls-5" transform="translate(6.29 118.39) rotate(-45)">facebook</text><text class="cls-5" transform="translate(6.31 98.6) rotate(-45)">facebook</text><text class="cls-5" transform="translate(83.09 79.99) rotate(-45)">facebook</text><text class="cls-5" transform="translate(83.11 60.2) rotate(-45)">facebook</text><text class="cls-5" transform="translate(83.14 98.62) rotate(-45)">facebook</text><text class="cls-5" transform="translate(44.69 79.99) rotate(-45)">facebook</text><text class="cls-5" transform="translate(44.71 60.2) rotate(-45)">facebook</text><text class="cls-5" transform="translate(44.74 98.62) rotate(-45)">facebook</text><text class="cls-5" transform="translate(6.29 79.99) rotate(-45)">facebook</text><text class="cls-5" transform="translate(6.31 60.2) rotate(-45)">facebook</text><text class="cls-5" transform="translate(6.34 98.62) rotate(-45)">facebook</text><text class="cls-5" transform="translate(83.09 41.59) rotate(-45)">facebook</text><text class="cls-5" transform="translate(83.14 60.22) rotate(-45)">facebook</text><text class="cls-5" transform="translate(44.69 41.59) rotate(-45)">facebook</text><text class="cls-5" transform="translate(44.74 60.22) rotate(-45)">facebook</text><text class="cls-5" transform="translate(6.29 41.59) rotate(-45)">facebook</text><text class="cls-5" transform="translate(6.34 60.22) rotate(-45)">facebook</text></g><g class="cls-8"><text class="cls-5" transform="translate(83.09 156.79) rotate(-45)">facebook</text><text class="cls-5" transform="translate(83.11 137) rotate(-45)">facebook</text><text class="cls-5" transform="translate(44.69 156.79) rotate(-45)">facebook</text><text class="cls-5" transform="translate(44.71 137) rotate(-45)">facebook</text><text class="cls-5" transform="translate(6.29 156.79) rotate(-45)">facebook</text><text class="cls-5" transform="translate(6.31 137) rotate(-45)">facebook</text><text class="cls-5" transform="translate(83.09 118.39) rotate(-45)">facebook</text><text class="cls-5" transform="translate(83.11 98.6) rotate(-45)">facebook</text><text class="cls-5" transform="translate(83.14 137.02) rotate(-45)">facebook</text><text class="cls-5" transform="translate(44.69 118.39) rotate(-45)">facebook</text><text class="cls-5" transform="translate(44.71 98.6) rotate(-45)">facebook</text><text class="cls-5" transform="translate(44.74 137.02) rotate(-45)">facebook</text><text class="cls-5" transform="translate(6.29 118.39) rotate(-45)">facebook</text><text class="cls-5" transform="translate(6.31 98.6) rotate(-45)">facebook</text><text class="cls-5" transform="translate(6.34 137.02) rotate(-45)">facebook</text><text class="cls-5" transform="translate(83.09 79.99) rotate(-45)">facebook</text><text class="cls-5" transform="translate(83.14 98.62) rotate(-45)">facebook</text><text class="cls-5" transform="translate(44.69 79.99) rotate(-45)">facebook</text><text class="cls-5" transform="translate(44.74 98.62) rotate(-45)">facebook</text><text class="cls-5" transform="translate(6.29 79.99) rotate(-45)">facebook</text><text class="cls-5" transform="translate(6.34 98.62) rotate(-45)">facebook</text></g></g></g></g></svg>