<svg xmlns="http://www.w3.org/2000/svg" xmlns:xlink="http://www.w3.org/1999/xlink" viewBox="0 0 38.4 38.4"><defs><style>.cls-1{fill:none;}.cls-2{font-size:10.4px;fill:#fff;font-family:RobotoMono-Regular, Roboto Mono;}.cls-3{fill:#1b77f2;}.cls-4{fill:url(#New_Pattern_Swatch_2);}</style><pattern id="New_Pattern_Swatch_2" data-name="New Pattern Swatch 2" width="38.4" height="38.4" patternTransform="translate(-43.61 -11.29)" patternUnits="userSpaceOnUse" viewBox="0 0 38.4 38.4"><rect class="cls-1" width="38.4" height="38.4"/><text class="cls-2" transform="translate(42.1 77.4) rotate(-45)">facebook</text><text class="cls-2" transform="translate(42.12 57.61) rotate(-45)">facebook</text><text class="cls-2" transform="translate(3.7 77.4) rotate(-45)">facebook</text><text class="cls-2" transform="translate(3.72 57.61) rotate(-45)">facebook</text><text class="cls-2" transform="translate(-34.7 77.4) rotate(-45)">facebook</text><text class="cls-2" transform="translate(-34.68 57.61) rotate(-45)">facebook</text><text class="cls-2" transform="translate(42.1 39) rotate(-45)">facebook</text><text class="cls-2" transform="translate(42.12 19.21) rotate(-45)">facebook</text><text class="cls-2" transform="translate(42.15 57.63) rotate(-45)">facebook</text><text class="cls-2" transform="translate(3.7 39) rotate(-45)">facebook</text><text class="cls-2" transform="translate(3.72 19.21) rotate(-45)">facebook</text><text class="cls-2" transform="translate(3.75 57.63) rotate(-45)">facebook</text><text class="cls-2" transform="translate(-34.7 39) rotate(-45)">facebook</text><text class="cls-2" transform="translate(-34.68 19.21) rotate(-45)">facebook</text><text class="cls-2" transform="translate(-34.65 57.63) rotate(-45)">facebook</text><text class="cls-2" transform="translate(42.1 0.6) rotate(-45)">facebook</text><text class="cls-2" transform="translate(42.15 19.23) rotate(-45)">facebook</text><text class="cls-2" transform="translate(3.7 0.6) rotate(-45)">facebook</text><text class="cls-2" transform="translate(3.75 19.23) rotate(-45)">facebook</text><text class="cls-2" transform="translate(-34.7 0.6) rotate(-45)">facebook</text><text class="cls-2" transform="translate(-34.65 19.23) rotate(-45)">facebook</text></pattern></defs><g id="Layer_2" data-name="Layer 2"><g id="Layer_1-2" data-name="Layer 1"><rect class="cls-3" width="38.4" height="38.4"/><rect class="cls-4" width="38.4" height="38.4"/></g></g></svg>