<svg xmlns="http://www.w3.org/2000/svg" xmlns:xlink="http://www.w3.org/1999/xlink" viewBox="0 0 38.5 38.5"><defs><style>.cls-1{fill:none;}.cls-2{isolation:isolate;font-size:10.4px;fill:#fff;font-family:RobotoMono-Regular, Roboto Mono;}.cls-3{fill:#1b77f2;}.cls-4{fill:url(#New_Pattern_Swatch_5);}</style><pattern id="New_Pattern_Swatch_5" data-name="New Pattern Swatch 5" width="39.78" height="57.33" patternTransform="matrix(1, 0, 0, -1, 80.72, 1328.02)" patternUnits="userSpaceOnUse" viewBox="0 0 39.78 57.33"><rect class="cls-1" width="39.78" height="57.33"/><rect class="cls-1" width="39.78" height="57.33"/><text class="cls-2" transform="matrix(0.71, 0.71, 0.71, -0.71, 44.2, -29.87)">facebook</text><text class="cls-2" transform="matrix(0.71, 0.71, 0.71, -0.71, 4.42, -29.87)">facebook</text><text class="cls-2" transform="matrix(0.71, 0.71, 0.71, -0.71, -35.36, -29.87)">facebook</text><text class="cls-2" transform="matrix(0.71, 0.71, 0.71, -0.71, 44.2, 8.83)">facebook</text><text class="cls-2" transform="matrix(0.71, 0.71, 0.71, -0.71, 44.2, 27.47)">facebook</text><text class="cls-2" transform="matrix(0.71, 0.71, 0.71, -0.71, 44.2, -9.8)">facebook</text><text class="cls-2" transform="matrix(0.71, 0.71, 0.71, -0.71, 4.42, 8.83)">facebook</text><text class="cls-2" transform="matrix(0.71, 0.71, 0.71, -0.71, 4.42, 27.47)">facebook</text><text class="cls-2" transform="matrix(0.71, 0.71, 0.71, -0.71, 4.42, -9.8)">facebook</text><text class="cls-2" transform="matrix(0.71, 0.71, 0.71, -0.71, -35.36, 8.83)">facebook</text><text class="cls-2" transform="matrix(0.71, 0.71, 0.71, -0.71, -35.36, 27.47)">facebook</text><text class="cls-2" transform="matrix(0.71, 0.71, 0.71, -0.71, -35.36, -9.8)">facebook</text><text class="cls-2" transform="matrix(0.71, 0.71, 0.71, -0.71, 44.2, 47.53)">facebook</text><text class="cls-2" transform="matrix(0.71, 0.71, 0.71, -0.71, 4.42, 47.53)">facebook</text><text class="cls-2" transform="matrix(0.71, 0.71, 0.71, -0.71, -35.36, 47.53)">facebook</text></pattern></defs><g id="Layer_2" data-name="Layer 2"><g id="Layer_1-2" data-name="Layer 1"><g id="Layer_2-2" data-name="Layer 2"><g id="Layer_1-2-2" data-name="Layer 1-2"><rect class="cls-3" width="38.5" height="38.5"/><rect class="cls-4" width="38.5" height="38.5"/></g></g></g></g></svg>